<svg width="93" height="26" viewBox="0 0 93 26" fill="none" xmlns="http://www.w3.org/2000/svg">
<g clip-path="url(#clip0_26_445)">
<g opacity="0.3">
<path d="M0.749023 0.183838C0.934968 0.183838 1.30686 0.183838 1.4928 0.367723C1.67875 0.551609 1.67875 0.551609 1.86469 0.735494L12.0917 10.8492L22.3186 0.735494C22.5046 0.551609 22.8765 0.367723 23.0624 0.183838H23.4343V25.1923C22.8765 25.1923 22.3186 25.1923 21.7608 25.1923H18.2278V13.2397C18.0419 13.4236 18.0419 13.4236 17.856 13.4236L12.0917 19.1241C10.0463 17.2852 8.00087 15.2625 6.14143 13.4236V25.3762H0.749023V0.183838Z" fill="white"/>
<path d="M64.342 25.1924C64.1561 24.8246 64.156 24.273 63.9701 23.9052C63.5982 22.4341 63.2263 20.7792 62.6685 19.3081C62.4825 18.7564 62.2966 18.3886 61.9247 17.837C61.3669 16.7337 60.2512 15.9981 58.9496 15.9981C58.2058 15.9981 57.462 15.9981 56.9042 15.9981H56.7183C56.7183 16.5498 56.7183 17.2853 56.7183 17.837V25.1924H50.768V0.551758H50.954C53.7431 0.551758 56.5323 0.551758 59.5074 0.551758C60.809 0.551758 62.1106 0.735644 63.2263 1.10341C64.5279 1.47118 65.6436 2.20673 66.5733 3.12615C67.689 4.04558 68.2468 5.51667 68.4328 6.80386C68.6187 8.09106 68.4328 9.37826 68.0609 10.6655C67.5031 11.9527 66.5733 13.056 65.4577 13.7915L65.2717 13.9754L65.4577 14.1593C66.3874 14.7109 66.9452 15.4465 67.5031 16.3659C68.0609 17.2853 68.6187 18.2048 68.9906 19.3081L71.036 25.1924V25.3763C70.8501 25.1924 64.7139 25.1924 64.342 25.1924ZM56.7183 11.5849H58.0199C58.7636 11.5849 59.5074 11.5849 60.2512 11.401C61.3669 11.0332 62.1107 10.2977 62.4826 9.01049C62.6685 8.45883 62.6685 7.72329 62.4826 6.98775C62.2966 6.06832 61.5528 5.33278 60.6231 4.96501C60.2512 4.78112 59.8793 4.78112 59.5074 4.78112C58.7636 4.78112 57.8339 4.78112 56.9042 4.78112H56.7183V11.5849Z" fill="white"/>
<path d="M72.3378 21.6985L75.6848 18.2047L75.8708 18.3886C76.8005 19.4919 78.1021 20.4113 79.5897 20.7791C80.7053 21.1468 82.0069 21.1468 83.1226 20.7791C83.6804 20.5952 84.0523 20.4113 84.4242 20.0435C85.354 19.1241 85.3539 17.8369 84.6102 16.9175C84.4242 16.9175 84.0523 16.5497 83.6804 16.3658C82.9367 15.998 82.1929 15.6303 81.4491 15.4464C80.3334 15.0786 79.4037 14.7108 78.288 14.3431C77.3583 13.9753 76.6145 13.6075 75.8708 13.0559C74.5691 12.1364 73.6394 10.6654 73.2675 9.01039C73.0816 7.53931 73.2675 6.06822 73.8254 4.78102C74.941 2.5744 76.9864 0.919428 79.4037 0.367771C80.7053 0 81.821 0 83.1226 0C84.9821 0.183886 86.6556 0.551657 88.1431 1.47108C89.0728 1.83886 89.8166 2.5744 90.3745 3.12605L90.5604 3.30994L87.2134 6.80376C87.0275 6.61988 86.8415 6.43599 86.6556 6.43599C85.354 5.1488 83.4945 4.41325 81.635 4.59714C81.0772 4.59714 80.7053 4.59714 80.3334 4.96491C79.4037 5.33268 79.0318 6.25211 79.0318 7.17154C79.0318 7.72319 79.4037 8.09096 79.7756 8.45873C80.1475 8.64262 80.5194 9.01039 80.8913 9.19428C81.821 9.56205 82.7507 9.92982 83.6804 10.2976C84.6102 10.6654 85.7258 11.0331 86.6556 11.4009C87.7712 11.7687 88.701 12.5042 89.6307 13.2398C90.7463 14.3431 91.4901 15.6303 91.6761 17.1014C91.862 18.3886 91.6761 19.6758 91.3042 20.7791C90.5604 22.6179 89.0728 24.2729 87.2134 25.0084C86.0977 25.5601 84.7961 25.744 83.6804 25.9279C81.821 26.1117 80.1475 25.9279 78.474 25.5601C76.6145 25.1923 74.7551 24.089 73.4535 22.8018C72.8956 22.434 72.7097 22.0663 72.3378 21.6985Z" fill="white"/>
<path d="M48.5365 25.1922H42.2144C42.0284 25.1922 42.0284 25.1923 41.8425 25.0084L40.9128 22.6179C40.9128 22.434 40.9128 22.434 40.7268 22.2501H32.3593C32.3593 22.434 32.3593 22.434 32.1733 22.6179L31.2436 25.0084C31.2436 25.1923 31.0577 25.1922 30.8717 25.1922H25.4793C25.4793 25.0084 25.4793 25.0084 25.6653 24.8245C26.7809 22.434 27.7107 20.2273 28.8263 17.8368C31.2436 12.1364 33.8469 6.4359 36.2641 0.91933C36.2641 0.735445 36.4501 0.551559 36.4501 0.551559C36.636 0.183788 37.1939 0.183788 37.3798 0.367674L37.5658 0.551559C37.5658 0.735445 37.7517 0.91933 37.7517 0.91933C39.7971 5.70035 42.0284 10.4814 44.0738 15.4463L48.3506 25.0084C48.5365 25.0084 48.5365 25.1922 48.5365 25.1922ZM34.2187 18.0207C34.7766 18.0207 38.8674 18.0207 39.0533 18.0207C39.0533 17.6529 36.822 12.3203 36.636 12.1364L34.2187 18.0207Z" fill="white"/>
</g>
</g>
<defs>
<clipPath id="clip0_26_445">
<rect width="92" height="26" fill="white" transform="translate(0.5)"/>
</clipPath>
</defs>
</svg>
