<svg width="146" height="24" viewBox="0 0 146 24" fill="none" xmlns="http://www.w3.org/2000/svg">
<g opacity="0.3">
<path fill-rule="evenodd" clip-rule="evenodd" d="M142.562 8.31398C143.209 9.98969 143.371 11.8148 143.028 13.5787C142.686 15.3426 141.853 16.9734 140.626 18.2828C139.427 19.303 138.135 20.3778 136.472 20.0418C136.045 19.9518 135.651 19.744 135.335 19.4418C135.02 19.1397 134.794 18.7551 134.684 18.3314C134.521 17.5926 134.505 16.8288 134.636 16.0836L141.386 16.0715L141.202 15.8397C137.825 11.8598 135.147 7.33189 133.285 2.45006C131.334 7.36882 128.663 11.9685 125.361 16.0975L131.98 16.0836C131.941 16.9727 132.148 18.0571 131.738 18.8202C131.508 19.2163 131.175 19.5431 130.776 19.7665C130.377 19.9899 129.925 20.1018 129.468 20.0904C126.798 19.8404 125.023 17.4858 124.008 15.2527C123.429 13.8052 123.228 12.2337 123.422 10.6863C123.616 9.13898 124.2 7.66671 125.118 6.40825C126.427 4.71555 128.225 3.46932 130.266 2.83968C132.307 2.21005 134.492 2.22771 136.522 2.89024C137.85 3.32312 139.072 4.02908 140.112 4.96299C141.152 5.8969 141.987 7.03821 142.562 8.31398ZM144.446 6.45687C145.482 8.47016 145.915 10.7413 145.692 12.996C145.469 15.2506 144.6 17.3923 143.19 19.1623C141.517 21.0947 139.32 22.4976 136.867 23.2003C134.413 23.9031 131.809 23.8753 129.371 23.1205C127.026 22.4286 124.948 21.0316 123.419 19.1179C121.889 17.2043 120.982 14.8661 120.819 12.4189C120.723 10.1604 121.278 7.92205 122.418 5.97197C123.557 4.02189 125.233 2.44279 127.245 1.42383C129.297 0.396203 131.576 -0.0892202 133.868 0.0134815C136.159 0.116183 138.386 0.803613 140.339 2.01074C142.039 3.14597 143.447 4.66974 144.446 6.45687Z" fill="white"/>
<path d="M80.8544 8.91826C81.2398 9.46005 81.6395 9.99421 82.0406 10.5295C82.6951 11.4037 83.3518 12.2811 83.9519 13.2003H77.1256L80.5214 8.90088C80.5214 8.90088 80.5582 8.84302 80.6076 8.80242C80.6216 8.79077 80.6368 8.78059 80.6524 8.77349C80.6685 8.76618 80.6849 8.76226 80.7014 8.76374C80.7889 8.77148 80.8544 8.91826 80.8544 8.91826Z" fill="white"/>
<path fill-rule="evenodd" clip-rule="evenodd" d="M0.749023 24H116.422L116.447 0.323792H0.749023V24ZM43.4132 8.10995C43.4339 7.62455 43.3346 7.14148 43.1233 6.70429V6.69741C42.4692 5.35163 40.9467 5.10766 39.5483 5.13458L30.4946 5.14592C29.8612 5.12292 29.2299 5.23781 28.6446 5.48263C28.0593 5.72745 27.5341 6.09637 27.1043 6.56408C26.6741 7.03178 26.3504 7.58724 26.1548 8.1923C25.9591 8.79736 25.8962 9.43771 25.9701 10.0695C26.0829 11.005 26.511 11.8737 27.1833 12.5315C27.8561 13.1893 28.7325 13.5965 29.6672 13.6856H39.4554C39.5424 13.6923 39.6282 13.7081 39.7115 13.7325C39.7871 13.7546 39.8606 13.7839 39.9312 13.82C40.0791 13.8958 40.2109 14.0004 40.3183 14.1277C40.426 14.255 40.5072 14.4024 40.5575 14.5613C40.6077 14.7203 40.6263 14.8878 40.612 15.054C40.6082 15.1956 40.582 15.3347 40.5355 15.4666C40.5084 15.5436 40.4742 15.6182 40.4336 15.6893C40.3965 15.7551 40.3534 15.8181 40.3048 15.8772C40.1138 16.1098 39.8513 16.2719 39.5585 16.3381L25.971 16.3242L25.9781 16.9033C26.0356 17.4765 26.2866 18.0128 26.6898 18.4234C27.0925 18.8338 27.6232 19.094 28.1937 19.1606L38.4864 19.1718C40.2528 19.1718 41.8552 19.1571 43.027 17.6959C43.5151 17.1465 43.8451 16.4741 43.9812 15.751C44.1177 15.0279 44.0551 14.2812 43.8007 13.591C43.5552 12.774 43.0676 12.0515 42.4029 11.5189C41.7381 10.9864 40.9281 10.6693 40.0795 10.6096H30.7778C30.5407 10.6189 30.3036 10.5859 30.0776 10.5123C29.7695 10.3803 29.5257 10.1319 29.3993 9.82084C29.2725 9.50978 29.273 9.1612 29.401 8.85056C29.4593 8.74013 29.5324 8.6387 29.6169 8.54851C29.7036 8.4563 29.8029 8.37597 29.9119 8.31005C29.9922 8.26161 30.0767 8.22166 30.1642 8.1905C30.3121 8.13772 30.4689 8.11027 30.6273 8.10995H43.4132ZM68.1889 9.85677C68.2485 7.47617 66.4754 5.1988 64.2868 5.1988L52.9322 5.18672C52.1999 5.19541 51.4971 5.47775 50.9617 5.97852C50.6841 6.19844 50.4606 6.47929 50.308 6.79936C50.2345 6.9541 50.1783 7.11593 50.1402 7.28201C50.0993 7.45953 50.0794 7.64182 50.0815 7.82517V17.6924C50.0908 17.9795 50.1816 18.2556 50.3405 18.4897C50.3959 18.571 50.4593 18.6472 50.5303 18.7171C50.8054 18.9882 51.1739 19.1426 51.5597 19.1484C51.7625 19.1615 51.9662 19.1336 52.1585 19.0662C52.3503 18.9988 52.527 18.8932 52.6774 18.756L52.6939 18.7404C52.7125 18.7233 52.7306 18.7057 52.748 18.6878C52.7708 18.6642 52.7928 18.6397 52.8139 18.6146C52.9026 18.5095 52.977 18.3926 53.0349 18.2669C53.1203 18.0816 53.1672 17.8808 53.1735 17.6768V8.45376L53.2698 8.35562H63.5613C63.7743 8.37978 63.9784 8.45344 64.1575 8.57066C64.3371 8.68798 64.4867 8.84558 64.5945 9.03116C64.7027 9.21663 64.7656 9.42478 64.7792 9.63918C64.7927 9.85348 64.7563 10.0681 64.6727 10.2657C64.6583 10.3123 64.641 10.3577 64.6211 10.4018C64.589 10.4738 64.5497 10.5423 64.5045 10.6064C64.4487 10.685 64.3832 10.7571 64.3092 10.8206C64.2378 10.8819 64.1597 10.9344 64.0764 10.977C64.0075 11.0125 63.9348 11.0412 63.86 11.0626C63.8098 11.0769 63.7586 11.0881 63.7066 11.0957H54.4788L54.0833 11.088C54.0964 11.5208 54.164 11.9501 54.2849 12.3659C54.4945 12.8629 54.8258 13.2986 55.2483 13.6325C55.6709 13.9665 56.1704 14.1878 56.7012 14.276H64.335C66.1508 14.276 68.1319 12.154 68.1889 9.85677ZM83.6455 7.3208C84.3884 8.36484 85.4503 9.79413 86.5651 11.2947L86.5778 11.311L86.6069 11.3507C88.1236 13.3927 89.7319 15.5591 90.7647 17.0613C90.842 17.3532 90.8521 17.6589 90.7934 17.9552C90.7596 18.1267 90.7034 18.2924 90.6265 18.4481C90.5707 18.5615 90.5039 18.6696 90.427 18.7708C90.1807 18.9899 89.8768 19.1339 89.5515 19.1859C89.2265 19.2379 88.8931 19.1957 88.5909 19.0643C87.7944 18.2465 87.0671 17.364 86.4159 16.4257L74.6797 16.4005L73.2949 18.3028C73.2611 18.3614 73.2239 18.4179 73.1842 18.4718C73.1276 18.5481 73.065 18.6197 72.9974 18.6857C72.8546 18.8252 72.6885 18.9403 72.5055 19.0253C72.1747 19.179 71.8045 19.2268 71.4457 19.1623C71.4107 19.1539 71.3764 19.1443 71.3422 19.1334L71.3067 19.1215L71.2657 19.1064C71.1072 19.0459 70.9606 18.9581 70.8317 18.8464C70.6551 18.6933 70.5177 18.5001 70.4311 18.2828C70.3162 18.0433 70.2646 17.778 70.2815 17.5127C70.287 17.4261 70.2997 17.3404 70.3196 17.2566C70.3601 17.0834 70.4303 16.918 70.5275 16.7678L77.9699 6.79894C78.196 6.33092 78.5446 5.93348 78.9786 5.64934C79.413 5.3653 79.9159 5.20527 80.4339 5.18672C82.0642 5.20834 82.3431 5.57939 83.2737 6.81748C83.3894 6.97148 83.5154 7.13893 83.6552 7.3208H83.6455ZM112.385 6.11863C111.717 5.57801 110.9 5.25688 110.044 5.1988L98.737 5.18672C98.554 5.17072 98.3706 5.17337 98.1893 5.19446C98.006 5.21587 97.8251 5.25603 97.6489 5.31464C97.4891 5.36774 97.3353 5.43546 97.1891 5.51675C97.0142 5.61405 96.8502 5.73063 96.6998 5.8648C96.3816 6.08811 96.1267 6.3908 95.9607 6.74319C95.8724 6.93015 95.8111 7.1277 95.7773 7.32991C95.7473 7.50881 95.7393 7.69142 95.7532 7.87382L95.7418 17.8244C95.7785 18.2046 95.9531 18.5581 96.232 18.8182C96.5109 19.0782 96.8751 19.2267 97.2559 19.2357C97.6366 19.2447 98.0072 19.1135 98.298 18.8669C98.4509 18.7373 98.576 18.5805 98.6685 18.4061C98.7518 18.2486 98.8084 18.0767 98.8342 17.8973V8.51025L98.8642 8.40607L109.282 8.37565C109.514 8.40617 109.733 8.49806 109.918 8.64199C110.103 8.7858 110.247 8.97647 110.334 9.19437C110.355 9.23687 110.374 9.28043 110.39 9.32473C110.398 9.34805 110.406 9.37168 110.413 9.39553C110.448 9.51211 110.466 9.63356 110.466 9.75608C110.466 9.95109 110.421 10.1433 110.334 10.3178C110.259 10.5217 110.13 10.7017 109.962 10.8391C109.864 10.9191 109.754 10.983 109.638 11.0289C109.555 11.0618 109.467 11.0854 109.377 11.0992L99.8006 11.1114V11.5863C99.8961 12.2898 100.221 12.9419 100.724 13.4416C101.226 13.9412 101.879 14.2606 102.582 14.3498L107.725 14.3246C107.764 14.3649 107.799 14.4044 107.832 14.4434C107.886 14.5072 107.933 14.5696 107.98 14.632C108.049 14.7238 108.118 14.8154 108.208 14.9107C109.276 16.2616 111.205 18.6379 111.205 18.6379C111.299 18.7226 111.402 18.7945 111.513 18.8525C111.645 18.9219 111.789 18.9713 111.937 18.9982C112.028 19.0147 112.12 19.0225 112.211 19.022C112.327 19.0212 112.442 19.0069 112.555 18.9794C112.621 18.9633 112.686 18.9426 112.75 18.9175C112.936 18.8435 113.104 18.7281 113.239 18.58C113.375 18.432 113.476 18.255 113.534 18.0623C113.559 17.9992 113.58 17.9346 113.596 17.869C113.612 17.805 113.624 17.7399 113.631 17.6743C113.64 17.5922 113.642 17.5092 113.637 17.4262C113.624 17.2091 113.565 16.9975 113.463 16.806L111.445 13.8844C111.591 13.7917 111.733 13.6942 111.872 13.5921C112.041 13.4682 112.205 13.3375 112.363 13.2003C113.081 12.617 113.602 11.8256 113.854 10.9343C114.107 10.043 114.08 9.09517 113.775 8.22017C113.538 7.39308 113.053 6.65925 112.385 6.11863Z" fill="white"/>
</g>
</svg>
