<svg width="287" height="75" viewBox="0 0 287 75" fill="none" xmlns="http://www.w3.org/2000/svg">
<path d="M50.5847 25.2981C34.9731 10.2726 30.8117 2.17206 30.6825 0C30.1225 2.64054 29.752 9.65928 32.7503 16.6099C36.4981 25.2981 51.7478 31.6865 51.4893 41.3969C51.2309 51.1073 42.8306 54.4293 38.8243 54.046C35.6193 53.7393 33.4395 51.5332 32.7503 50.4685C32.7503 50.4685 33.3964 60.9455 45.9322 60.5622C58.468 60.1789 70.0992 44.0801 50.5847 25.2981Z" fill="#E0E0E0"/>
<path d="M11.9434 23.7649C22.1788 14.1567 27.4085 6.64395 28.744 4.08859C28.744 12.9046 30.6825 14.9489 33.2672 20.1874C35.8519 25.4259 48 32.4532 49.6801 38.4583C51.3601 44.4634 48.9046 46.7632 46.5784 49.1908C48.5169 44.3356 44.2522 39.2249 41.1505 37.6917C38.6692 36.4651 33.2241 31.7291 30.8117 29.5145C29.9933 30.4089 27.3999 32.8876 23.5746 35.6474C18.7929 39.0971 11.9434 42.1635 11.168 49.5741C10.3926 56.9847 15.4328 61.4566 22.6699 66.3118C28.4597 70.1959 29.7348 73.3816 29.6486 74.4889C29.6486 74.4889 22.5407 71.8058 11.9434 66.3118C1.34615 60.8177 0.183034 50.4685 0.0537993 48.0409C-0.0754357 45.6133 -0.850846 35.7751 11.9434 23.7649Z" fill="#E0E0E0"/>
<path d="M44.5107 62.0954C53.2986 63.0153 59.0281 55.9199 60.7943 52.2572C60.1481 58.2623 55.0702 62.8447 53.0402 64.3952C50.5309 66.3118 39.0828 71.8058 36.6273 72.5724C34.6629 73.1857 32.2764 74.4463 31.3287 75V74.4889C30.2948 68.4838 21.5068 64.2675 15.8205 59.1567C11.2714 55.0681 11.7711 50.4685 12.5896 48.6797C12.9342 50.2129 14.4247 53.3049 17.6298 53.4072C21.6361 53.5349 22.0238 51.8739 24.9962 47.402C27.9686 42.9302 29.3902 41.0136 32.2333 40.8859C35.0765 40.7581 36.2396 42.4191 36.6273 42.9302C37.2735 43.1857 38.1781 43.6968 38.1781 44.7189C35.2057 43.4412 31.3287 45.9966 31.4579 50.4685C31.5872 54.9404 33.5257 60.9455 44.5107 62.0954Z" fill="#E0E0E0"/>
<path d="M85.4288 47.504C81.6608 47.504 78.5288 46.244 76.0328 43.724C73.5608 41.228 72.3248 38.12 72.3248 34.4C72.3248 30.656 73.5608 27.548 76.0328 25.076C78.5288 22.556 81.6608 21.296 85.4288 21.296C87.7088 21.296 89.8088 21.836 91.7288 22.916C93.6728 23.972 95.1848 25.412 96.2648 27.236L91.9808 29.72C91.3568 28.592 90.4688 27.716 89.3168 27.092C88.1648 26.444 86.8688 26.12 85.4288 26.12C82.9808 26.12 81.0008 26.888 79.4888 28.424C78.0008 29.984 77.2568 31.976 77.2568 34.4C77.2568 36.8 78.0008 38.78 79.4888 40.34C81.0008 41.876 82.9808 42.644 85.4288 42.644C86.8688 42.644 88.1648 42.332 89.3168 41.708C90.4928 41.06 91.3808 40.184 91.9808 39.08L96.2648 41.564C95.1848 43.388 93.6728 44.84 91.7288 45.92C89.8088 46.976 87.7088 47.504 85.4288 47.504ZM114.578 44.768C112.754 46.592 110.498 47.504 107.81 47.504C105.122 47.504 102.866 46.592 101.042 44.768C99.2181 42.944 98.3061 40.688 98.3061 38C98.3061 35.336 99.2181 33.092 101.042 31.268C102.89 29.42 105.146 28.496 107.81 28.496C110.474 28.496 112.73 29.42 114.578 31.268C116.426 33.116 117.35 35.36 117.35 38C117.35 40.664 116.426 42.92 114.578 44.768ZM104.318 41.564C105.254 42.5 106.418 42.968 107.81 42.968C109.202 42.968 110.366 42.5 111.302 41.564C112.238 40.628 112.706 39.44 112.706 38C112.706 36.56 112.238 35.372 111.302 34.436C110.366 33.5 109.202 33.032 107.81 33.032C106.418 33.032 105.254 33.5 104.318 34.436C103.406 35.396 102.95 36.584 102.95 38C102.95 39.416 103.406 40.604 104.318 41.564ZM140.561 28.496C142.625 28.496 144.269 29.168 145.493 30.512C146.741 31.856 147.365 33.656 147.365 35.912V47H142.721V36.236C142.721 35.156 142.457 34.316 141.929 33.716C141.401 33.116 140.657 32.816 139.697 32.816C138.641 32.816 137.813 33.164 137.213 33.86C136.637 34.556 136.349 35.564 136.349 36.884V47H131.705V36.236C131.705 35.156 131.441 34.316 130.913 33.716C130.385 33.116 129.641 32.816 128.681 32.816C127.649 32.816 126.821 33.176 126.197 33.896C125.597 34.592 125.297 35.588 125.297 36.884V47H120.653V29H125.297V30.908C126.377 29.3 128.045 28.496 130.301 28.496C132.533 28.496 134.165 29.36 135.197 31.088C136.373 29.36 138.161 28.496 140.561 28.496ZM161.821 28.496C164.245 28.496 166.309 29.42 168.013 31.268C169.741 33.116 170.605 35.36 170.605 38C170.605 40.688 169.741 42.944 168.013 44.768C166.333 46.592 164.269 47.504 161.821 47.504C159.301 47.504 157.357 46.628 155.989 44.876V54.2H151.345V29H155.989V31.124C157.357 29.372 159.301 28.496 161.821 28.496ZM157.393 41.672C158.329 42.608 159.517 43.076 160.957 43.076C162.397 43.076 163.585 42.608 164.521 41.672C165.481 40.712 165.961 39.488 165.961 38C165.961 36.512 165.481 35.3 164.521 34.364C163.585 33.404 162.397 32.924 160.957 32.924C159.517 32.924 158.329 33.404 157.393 34.364C156.457 35.3 155.989 36.512 155.989 38C155.989 39.488 156.457 40.712 157.393 41.672ZM191.413 39.908H177.841C178.441 42.164 180.133 43.292 182.917 43.292C184.693 43.292 186.037 42.692 186.949 41.492L190.693 43.652C188.917 46.22 186.301 47.504 182.845 47.504C179.869 47.504 177.481 46.604 175.681 44.804C173.881 43.004 172.981 40.736 172.981 38C172.981 35.312 173.869 33.056 175.645 31.232C177.397 29.408 179.677 28.496 182.485 28.496C185.149 28.496 187.321 29.408 189.001 31.232C190.729 33.056 191.593 35.312 191.593 38C191.593 38.504 191.533 39.14 191.413 39.908ZM177.769 36.308H186.949C186.685 35.132 186.145 34.232 185.329 33.608C184.537 32.984 183.589 32.672 182.485 32.672C181.237 32.672 180.205 32.996 179.389 33.644C178.573 34.268 178.033 35.156 177.769 36.308ZM204.639 29V33.464H200.571V40.952C200.571 41.576 200.727 42.032 201.039 42.32C201.351 42.608 201.807 42.776 202.407 42.824C203.007 42.848 203.751 42.836 204.639 42.788V47C201.495 47.36 199.251 47.072 197.907 46.136C196.587 45.176 195.927 43.448 195.927 40.952V33.464H192.795V29H195.927V25.364L200.571 23.96V29H204.639ZM224.883 39.908H211.311C211.911 42.164 213.603 43.292 216.387 43.292C218.163 43.292 219.507 42.692 220.419 41.492L224.163 43.652C222.387 46.22 219.771 47.504 216.315 47.504C213.339 47.504 210.951 46.604 209.151 44.804C207.351 43.004 206.451 40.736 206.451 38C206.451 35.312 207.339 33.056 209.115 31.232C210.867 29.408 213.147 28.496 215.955 28.496C218.619 28.496 220.791 29.408 222.471 31.232C224.199 33.056 225.063 35.312 225.063 38C225.063 38.504 225.003 39.14 224.883 39.908ZM211.239 36.308H220.419C220.155 35.132 219.615 34.232 218.799 33.608C218.007 32.984 217.059 32.672 215.955 32.672C214.707 32.672 213.675 32.996 212.859 33.644C212.043 34.268 211.503 35.156 211.239 36.308ZM238.349 28.496C240.341 28.496 241.961 29.156 243.209 30.476C244.505 31.82 245.153 33.644 245.153 35.948V47H240.509V36.524C240.509 35.348 240.185 34.436 239.537 33.788C238.913 33.14 238.049 32.816 236.945 32.816C235.721 32.816 234.749 33.2 234.029 33.968C233.333 34.712 232.985 35.816 232.985 37.28V47H228.341V29H232.985V31.016C234.089 29.336 235.877 28.496 238.349 28.496ZM257.722 47.504C255.01 47.504 252.742 46.592 250.918 44.768C249.118 42.944 248.218 40.688 248.218 38C248.218 35.312 249.118 33.056 250.918 31.232C252.742 29.408 255.01 28.496 257.722 28.496C259.474 28.496 261.07 28.916 262.51 29.756C263.95 30.596 265.042 31.724 265.786 33.14L261.79 35.48C261.43 34.736 260.878 34.148 260.134 33.716C259.414 33.284 258.598 33.068 257.686 33.068C256.294 33.068 255.142 33.536 254.23 34.472C253.318 35.384 252.862 36.56 252.862 38C252.862 39.392 253.318 40.568 254.23 41.528C255.142 42.44 256.294 42.896 257.686 42.896C258.622 42.896 259.45 42.692 260.17 42.284C260.914 41.852 261.466 41.264 261.826 40.52L265.858 42.824C265.066 44.264 263.938 45.404 262.474 46.244C261.034 47.084 259.45 47.504 257.722 47.504ZM285.565 39.908H271.993C272.593 42.164 274.285 43.292 277.069 43.292C278.845 43.292 280.189 42.692 281.101 41.492L284.845 43.652C283.069 46.22 280.453 47.504 276.997 47.504C274.021 47.504 271.633 46.604 269.833 44.804C268.033 43.004 267.133 40.736 267.133 38C267.133 35.312 268.021 33.056 269.797 31.232C271.549 29.408 273.829 28.496 276.637 28.496C279.301 28.496 281.473 29.408 283.153 31.232C284.881 33.056 285.745 35.312 285.745 38C285.745 38.504 285.685 39.14 285.565 39.908ZM271.921 36.308H281.101C280.837 35.132 280.297 34.232 279.481 33.608C278.689 32.984 277.741 32.672 276.637 32.672C275.389 32.672 274.357 32.996 273.541 33.644C272.725 34.268 272.185 35.156 271.921 36.308Z" fill="#E0E0E0"/>
</svg>
