<svg width="39" height="28" viewBox="0 0 39 28" fill="none" xmlns="http://www.w3.org/2000/svg">
<path d="M23.7877 13.134C25.0489 11.8832 26.7029 11.0972 28.476 10.906C30.2491 10.7149 32.0348 11.1302 33.5375 12.083M6.96121 26.3836C3.87388 26.3836 1.37109 23.9014 1.37109 20.8396C1.37109 17.7779 3.87388 15.2958 6.96121 15.2958C7.43666 15.2958 7.89827 15.3546 8.339 15.4654C8.16889 14.6965 8.07923 13.8978 8.07923 13.0781C8.07923 6.95454 13.0848 1.99036 19.2594 1.99036C24.6866 1.99036 29.2106 5.82537 30.2264 10.9119C34.1225 11.3567 37.1478 14.639 37.1478 18.6221C37.1478 22.9087 33.6439 26.3836 29.3217 26.3836C22.1231 26.3836 15.2508 26.3836 6.96121 26.3836Z" stroke="#FAFAFA" stroke-width="2.5" stroke-linecap="round" stroke-linejoin="round"/>
</svg>
