<svg width="48" height="34" viewBox="0 0 48 34" fill="none" xmlns="http://www.w3.org/2000/svg">
<path d="M29.5691 15.705C31.1202 14.1667 33.1544 13.2 35.335 12.965C37.5157 12.7299 39.7118 13.2406 41.5598 14.4125M8.87501 32C5.07805 32 2 28.9474 2 25.1818C2 21.4163 5.07805 18.3637 8.87501 18.3637C9.45974 18.3637 10.0275 18.436 10.5695 18.5723C10.3603 17.6267 10.25 16.6443 10.25 15.6363C10.25 8.1052 16.4061 2 24 2C30.6746 2 36.2384 6.7165 37.4877 12.9722C42.2794 13.5192 46 17.556 46 22.4546C46 27.7264 41.6907 32 36.375 32C27.5219 32 19.0699 32 8.87501 32Z" stroke="#2D3030" stroke-width="2.5" stroke-linecap="round" stroke-linejoin="round"/>
</svg>
