<svg width="26" height="20" viewBox="0 0 26 20" fill="none" xmlns="http://www.w3.org/2000/svg">
<path d="M26 2.3341C25.0466 2.7603 24.0202 3.0236 22.9687 3.1118C24.0545 2.4572 24.8756 1.47923 25.3005 0.334259C24.247 0.902739 23.1064 1.31496 21.9192 1.55638C21.4328 1.05419 20.8378 0.655599 20.1741 0.387329C19.5105 0.119059 18.7935 -0.0126706 18.0712 0.000959448C17.3767 0.00267945 16.6894 0.133669 16.049 0.386369C15.4087 0.639069 14.8279 1.00847 14.3402 1.47327C13.8525 1.93808 13.4675 2.4891 13.2075 3.0945C12.9474 3.6999 12.8175 4.3477 12.8252 5.0005C12.8005 5.3744 12.8404 5.7496 12.9433 6.1115C10.8321 5.9989 8.7685 5.4769 6.8823 4.5783C4.99609 3.6796 3.328 2.4238 1.98307 0.889769C1.52071 1.67108 1.27988 2.551 1.28352 3.4451C1.2758 4.2743 1.48426 5.0927 1.89074 5.8287C2.29721 6.5647 2.88936 7.1958 3.61528 7.6669C2.75038 7.6542 1.90484 7.424 1.16653 7.0003V7.1114C1.18158 8.2634 1.60135 9.3783 2.36061 10.2826C3.11987 11.1868 4.17599 11.8297 5.3643 12.111C4.9094 12.2388 4.43934 12.3134 3.96498 12.3332C3.61102 12.3512 3.25642 12.3137 2.91559 12.2221C3.26332 13.2051 3.91487 14.0684 4.787 14.7017C5.6591 15.3349 6.7122 15.7094 7.8118 15.7773C5.9444 17.142 3.64764 17.8846 1.28237 17.8882C0.85155 17.9065 0.42002 17.8691 0 17.7771C2.4289 19.2562 5.2679 20.0292 8.1616 19.9992C17.9554 19.9992 23.2015 12.3332 23.2015 5.6671V5.0005C24.3819 4.3759 25.3515 3.452 26 2.3341Z" fill="#989D9E"/>
</svg>
