<svg width="42" height="42" viewBox="0 0 42 42" fill="none" xmlns="http://www.w3.org/2000/svg">
<path d="M21 40C31.4934 40 40 31.4934 40 21C40 10.5066 31.4934 2 21 2C10.5066 2 2 10.5066 2 21C2 31.4934 10.5066 40 21 40Z" fill="url(#paint0_linear_159_283)"/>
<path d="M30 28C27.6967 30.4714 24.5147 32 21 32C17.4853 32 14.3033 30.4714 12 28" stroke="white" stroke-width="2" stroke-linecap="round"/>
<path d="M25 14.4C25 13.6268 25.6716 13 26.5 13C27.3284 13 28 13.6268 28 14.4V18.6C28 19.3732 27.3284 20 26.5 20C25.6716 20 25 19.3732 25 18.6V14.4Z" fill="white"/>
<path d="M14 14.4C14 13.6268 14.6716 13 15.5 13C16.3284 13 17 13.6268 17 14.4V18.6C17 19.3732 16.3284 20 15.5 20C14.6716 20 14 19.3732 14 18.6V14.4Z" fill="white"/>
<defs>
<linearGradient id="paint0_linear_159_283" x1="5.6884" y1="36.6175" x2="44.4776" y2="21.9658" gradientUnits="userSpaceOnUse">
<stop stop-color="#05CD7D"/>
<stop offset="1" stop-color="#05CD7D" stop-opacity="0"/>
</linearGradient>
</defs>
</svg>
