<svg width="42" height="42" viewBox="0 0 42 42" fill="none" xmlns="http://www.w3.org/2000/svg">
<path d="M2 12C2 10.8954 2.9514 10 4.125 10H33.875C35.0486 10 36 10.8954 36 12V32C36 33.1046 35.0486 34 33.875 34H4.125C2.9514 34 2 33.1046 2 32V12Z" fill="url(#paint0_linear_155_845)"/>
<path d="M37.875 8H8C8 6.89543 8.89543 6 10 6H37.875C39.0486 6 40 6.89543 40 8V26C40 27.1046 39.1046 28 38 28V8.03632C37.9802 8.02088 37.9399 8 37.875 8Z" fill="url(#paint1_linear_155_845)"/>
<path d="M23 29H15C14.4477 29 14 29.4477 14 30C14 30.5523 14.4477 31 15 31H23C23.5523 31 24 30.5523 24 30C24 29.4477 23.5523 29 23 29Z" fill="white"/>
<defs>
<linearGradient id="paint0_linear_155_845" x1="-4.63201e-07" y1="35.3333" x2="48.1528" y2="-3.41674" gradientUnits="userSpaceOnUse">
<stop stop-color="#05CD7D"/>
<stop offset="1" stop-color="#05CD7D" stop-opacity="0"/>
</linearGradient>
<linearGradient id="paint1_linear_155_845" x1="3.85006e-07" y1="35.3333" x2="48.1528" y2="-3.41674" gradientUnits="userSpaceOnUse">
<stop stop-color="#05CD7D"/>
<stop offset="1" stop-color="#05CD7D" stop-opacity="0"/>
</linearGradient>
</defs>
</svg>
