<svg width="25" height="24" viewBox="0 0 25 24" fill="none" xmlns="http://www.w3.org/2000/svg">
<path d="M12 15.9998C12.7911 15.9998 13.5645 15.7652 14.2223 15.3257C14.8801 14.8862 15.3928 14.2615 15.6955 13.5306C15.9983 12.7997 16.0775 11.9954 15.9231 11.2195C15.7688 10.4435 15.3878 9.73087 14.8284 9.17146C14.269 8.61205 13.5563 8.23108 12.7804 8.07674C12.0044 7.9224 11.2002 8.00161 10.4693 8.30436C9.73836 8.60711 9.11365 9.1198 8.67412 9.7776C8.2346 10.4353 8 11.2087 8 11.9998" stroke="#05CD7D" stroke-width="2" stroke-linecap="round"/>
<mask id="mask0_157_525" style="mask-type:alpha" maskUnits="userSpaceOnUse" x="0" y="0" width="25" height="24">
<path fill-rule="evenodd" clip-rule="evenodd" d="M8.01172 2C8.01172 0.89543 8.90715 0 10.0117 0H14.0117C15.1163 0 16.0117 0.895431 16.0117 2V2.83209C16.6589 3.11485 17.2704 3.46413 17.8375 3.87129L18.8784 3.26897C19.8345 2.71579 21.0565 3.04323 21.6079 4.00033L23.7151 7.6581C24.2665 8.6152 23.9385 9.83954 22.9824 10.3927L21.9607 10.9839C21.9944 11.318 22.0117 11.657 22.0117 12C22.0117 12.3336 21.9954 12.6634 21.9635 12.9886L23.0017 13.5874C23.9586 14.1392 24.2861 15.3618 23.7334 16.3181L21.621 19.9729C21.0683 20.9292 19.8445 21.2571 18.8877 20.7053L17.8599 20.1125C17.2865 20.5266 16.6674 20.8814 16.0117 21.1679V22C16.0117 23.1046 15.1163 24 14.0117 24H10.0117C8.90715 24 8.01172 23.1046 8.01172 22V21.1679C7.35943 20.8829 6.74343 20.5303 6.17255 20.1191L5.10953 20.7341C4.15346 21.2873 2.93143 20.9599 2.38005 20.0028L0.27283 16.345C-0.278553 15.3879 0.049506 14.1636 1.00557 13.6104L2.06106 12.9997C2.02843 12.6709 2.01172 12.3374 2.01172 12C2.01172 11.6628 2.0284 11.3296 2.06099 11.001L1.00033 10.3893C0.0434875 9.83748 -0.284109 8.61488 0.26863 7.65856L2.381 4.00383C2.93374 3.04751 4.1575 2.71961 5.11435 3.27144L6.17195 3.88138C6.743 3.4699 7.35921 3.11718 8.01172 2.83209V2Z" fill="white"/>
</mask>
<g mask="url(#mask0_157_525)">
<path d="M16.012 2.83209H14.012V4.14082L15.2113 4.66479L16.012 2.83209ZM17.8378 3.87129L16.6713 5.49593L17.721 6.24953L18.8394 5.6024L17.8378 3.87129ZM18.8787 3.26897L19.8804 5.00008L18.8787 3.26897ZM21.6082 4.00033L23.3412 3.00196L21.6082 4.00033ZM23.7154 7.6581L25.4484 6.65973L23.7154 7.6581ZM22.9827 10.3927L23.9843 12.1238L22.9827 10.3927ZM21.961 10.9839L20.9594 9.25277L19.8415 9.89962L19.9711 11.1847L21.961 10.9839ZM21.9638 12.9886L19.9733 12.7933L19.8474 14.0768L20.9646 14.7211L21.9638 12.9886ZM23.002 13.5874L24.0012 11.8549L23.002 13.5874ZM23.7337 16.3181L22.0021 15.3173L23.7337 16.3181ZM21.6213 19.9729L23.3529 20.9737L21.6213 19.9729ZM18.888 20.7053L19.8872 18.9727L18.888 20.7053ZM17.8602 20.1125L18.8594 18.38L17.7384 17.7335L16.6893 18.4911L17.8602 20.1125ZM16.012 21.1679L15.2113 19.3352L14.012 19.8592V21.1679H16.012ZM8.01206 21.1679H10.012V19.8592L8.8128 19.3352L8.01206 21.1679ZM6.17289 20.1191L7.34199 18.4963L6.2917 17.7396L5.17126 18.3879L6.17289 20.1191ZM5.10987 20.7341L4.10823 19.003L5.10987 20.7341ZM2.38039 20.0028L4.11338 19.0044L2.38039 20.0028ZM0.273169 16.345L-1.45982 17.3434L0.273169 16.345ZM1.00591 13.6104L0.00427365 11.8793L1.00591 13.6104ZM2.0614 12.9997L3.06303 14.7308L4.17896 14.0851L4.05162 12.8021L2.0614 12.9997ZM2.06133 11.001L4.05157 11.1984L4.17901 9.91354L3.06051 9.26849L2.06133 11.001ZM1.00067 10.3893L1.99985 8.65679L1.00067 10.3893ZM0.268969 7.65856L2.00055 8.65938L0.268969 7.65856ZM2.38134 4.00383L0.649762 3.00301L2.38134 4.00383ZM5.11469 3.27144L6.11386 1.53891L5.11469 3.27144ZM6.17229 3.88138L5.17312 5.6139L6.29283 6.25966L7.34151 5.50401L6.17229 3.88138ZM8.01206 2.83209L8.8128 4.66479L10.012 4.14082V2.83209H8.01206ZM10.012 -2C7.80292 -2 6.01206 -0.20914 6.01206 2H10.012V-2ZM14.012 -2H10.012V2H14.012V-2ZM18.012 2C18.012 -0.209138 16.2212 -2 14.012 -2V2H18.012ZM18.012 2.83209V2H14.012V2.83209H18.012ZM15.2113 4.66479C15.7282 4.89067 16.2173 5.16994 16.6713 5.49593L19.0042 2.24665C18.324 1.75833 17.5901 1.33904 16.8128 0.999381L15.2113 4.66479ZM17.8771 1.53787L16.8361 2.14019L18.8394 5.6024L19.8804 5.00008L17.8771 1.53787ZM23.3412 3.00196C22.2377 1.08648 19.7905 0.430755 17.8771 1.53787L19.8804 5.00008C19.8827 4.99876 19.8831 4.99876 19.882 4.99913C19.881 4.99946 19.8798 4.99975 19.8786 4.9999C19.8765 5.00016 19.8763 4.99981 19.8776 5.00015C19.8789 5.00048 19.8785 5.00071 19.8769 4.99942C19.8759 4.9987 19.875 4.99784 19.8743 4.99706C19.8735 4.99619 19.8739 4.99642 19.8752 4.9987L23.3412 3.00196ZM25.4484 6.65973L23.3412 3.00196L19.8752 4.9987L21.9824 8.65647L25.4484 6.65973ZM23.9843 12.1238C25.8952 11.0182 26.5505 8.57267 25.4484 6.65973L21.9824 8.65647C21.9838 8.65874 21.9838 8.65935 21.9836 8.65853C21.9833 8.65782 21.9832 8.657 21.9831 8.65635C21.9829 8.65534 21.9832 8.65654 21.9825 8.65925C21.9818 8.66195 21.9809 8.66285 21.9815 8.66203C21.9819 8.66151 21.9825 8.66089 21.9831 8.66039C21.9837 8.65982 21.9833 8.6603 21.9811 8.66162L23.9843 12.1238ZM22.9627 12.715L23.9843 12.1238L21.9811 8.66162L20.9594 9.25277L22.9627 12.715ZM19.9711 11.1847C19.9981 11.4522 20.012 11.7242 20.012 12H24.012C24.012 11.5898 23.9914 11.1838 23.9509 10.7831L19.9711 11.1847ZM20.012 12C20.012 12.2683 19.9989 12.5329 19.9733 12.7933L23.9542 13.184C23.9925 12.7939 24.012 12.3989 24.012 12H20.012ZM24.0012 11.8549L22.9629 11.2561L20.9646 14.7211L22.0028 15.3199L24.0012 11.8549ZM25.4653 17.319C26.5711 15.4057 25.9155 12.9589 24.0012 11.8549L22.0028 15.3199C22.0051 15.3212 22.0054 15.3217 22.0046 15.3209C22.0038 15.3203 22.003 15.3194 22.0024 15.3186C22.0013 15.3171 22.0017 15.3171 22.0021 15.3187C22.0025 15.3203 22.0022 15.3205 22.0024 15.3187C22.0026 15.3176 22.0028 15.3165 22.0031 15.3156C22.0035 15.3145 22.0034 15.3151 22.0021 15.3173L25.4653 17.319ZM23.3529 20.9737L25.4653 17.319L22.0021 15.3173L19.8898 18.9721L23.3529 20.9737ZM17.8888 22.4378C19.8019 23.5411 22.2478 22.8857 23.3529 20.9737L19.8898 18.972C19.8885 18.9743 19.888 18.9747 19.8886 18.974C19.8892 18.9733 19.8898 18.9727 19.8905 18.9722C19.8915 18.9715 19.8909 18.9721 19.8886 18.9728C19.8862 18.9734 19.8854 18.9731 19.8866 18.9733C19.8874 18.9734 19.8884 18.9736 19.8891 18.9738C19.89 18.9741 19.8894 18.9741 19.8872 18.9727L17.8888 22.4378ZM16.861 21.8451L17.8888 22.4378L19.8872 18.9727L18.8594 18.38L16.861 21.8451ZM16.6893 18.4911C16.2302 18.8227 15.7351 19.1063 15.2113 19.3352L16.8128 23.0006C17.6004 22.6565 18.3434 22.2306 19.0311 21.7339L16.6893 18.4911ZM18.012 22V21.1679H14.012V22H18.012ZM14.012 26C16.2212 26 18.012 24.2091 18.012 22H14.012V26ZM10.012 26H14.012V22H10.012V26ZM6.01206 22C6.01206 24.2091 7.80292 26 10.012 26V22H6.01206ZM6.01206 21.1679V22H10.012V21.1679H6.01206ZM8.8128 19.3352C8.29175 19.1076 7.79908 18.8257 7.34199 18.4963L5.00379 21.7418C5.68846 22.235 6.42779 22.6583 7.21131 23.0006L8.8128 19.3352ZM6.1115 22.4652L7.17453 21.8502L5.17126 18.3879L4.10823 19.003L6.1115 22.4652ZM0.647395 21.0011C1.7509 22.9166 4.1981 23.5724 6.1115 22.4652L4.10823 19.003C4.10596 19.0043 4.10549 19.0043 4.10659 19.004C4.10758 19.0036 4.10881 19.0034 4.11 19.0032C4.11211 19.0029 4.11227 19.0033 4.11101 19.003C4.10975 19.0026 4.11006 19.0024 4.11176 19.0037C4.11271 19.0044 4.11363 19.0053 4.11433 19.006C4.1151 19.0069 4.11469 19.0067 4.11338 19.0044L0.647395 21.0011ZM-1.45982 17.3434L0.647395 21.0011L4.11338 19.0044L2.00616 15.3466L-1.45982 17.3434ZM0.00427365 11.8793C-1.90658 12.9849 -2.56185 15.4304 -1.45982 17.3434L2.00616 15.3466C2.00485 15.3444 2.00477 15.3438 2.00505 15.3446C2.00528 15.3453 2.00546 15.3461 2.00554 15.3468C2.00566 15.3478 2.00537 15.3466 2.0061 15.3439C2.00682 15.3412 2.00767 15.3403 2.00706 15.3411C2.00667 15.3416 2.0061 15.3422 2.00554 15.3427C2.0049 15.3433 2.00527 15.3428 2.00754 15.3415L0.00427365 11.8793ZM1.05977 11.2686L0.00427365 11.8793L2.00754 15.3415L3.06303 14.7308L1.05977 11.2686ZM4.05162 12.8021C4.02549 12.5389 4.01206 12.2713 4.01206 12H0.0120571C0.0120571 12.4035 0.0320389 12.8029 0.0711775 13.1972L4.05162 12.8021ZM4.01206 12C4.01206 11.7289 4.02547 11.4615 4.05157 11.1984L0.0710971 10.8036C0.032012 11.1977 0.0120571 11.5968 0.0120571 12H4.01206ZM0.00149465 12.1218L1.06216 12.7335L3.06051 9.26849L1.99985 8.65679L0.00149465 12.1218ZM-1.46261 6.65774C-2.56846 8.57102 -1.91284 11.0178 0.0014956 12.1218L1.99985 8.65679C1.99758 8.65548 1.99731 8.65505 1.99812 8.65577C1.99885 8.65642 1.99964 8.65727 2.00028 8.65811C2.00139 8.65959 2.00101 8.6596 2.00058 8.65798C2.00014 8.65636 2.00048 8.65619 2.00025 8.65802C2.00012 8.65907 1.99986 8.6602 1.99956 8.66112C1.99921 8.66216 1.99923 8.66165 2.00055 8.65938L-1.46261 6.65774ZM0.649762 3.00301L-1.46261 6.65774L2.00055 8.65938L4.11292 5.00466L0.649762 3.00301ZM6.11386 1.53891C4.20081 0.43562 1.75487 1.09101 0.649762 3.00301L4.11292 5.00466C4.11423 5.00238 4.11469 5.00205 4.11407 5.00275C4.11353 5.00336 4.11283 5.004 4.1122 5.00447C4.11117 5.00525 4.11176 5.00456 4.11411 5.00393C4.11646 5.0033 4.11732 5.00361 4.11604 5.00345C4.11525 5.00335 4.11433 5.00314 4.11355 5.00289C4.11266 5.00259 4.11323 5.00265 4.11551 5.00396L6.11386 1.53891ZM7.17147 2.14885L6.11386 1.53891L4.11551 5.00396L5.17312 5.6139L7.17147 2.14885ZM7.34151 5.50401C7.79873 5.17455 8.29157 4.89253 8.8128 4.66479L7.21132 0.999381C6.42752 1.34184 5.68794 1.76525 5.00307 2.25875L7.34151 5.50401ZM6.01206 2V2.83209H10.012V2H6.01206Z" fill="#2D3030"/>
</g>
</svg>
