<svg width="42" height="42" viewBox="0 0 42 42" fill="none" xmlns="http://www.w3.org/2000/svg">
<path d="M4 25C4 23.8954 4.89543 23 6 23H17C18.1046 23 19 23.8954 19 25V36C19 37.1046 18.1046 38 17 38H6C4.89543 38 4 37.1046 4 36V25Z" fill="url(#paint0_linear_155_847)"/>
<path d="M23 25C23 23.8954 23.8954 23 25 23H36C37.1046 23 38 23.8954 38 25V36C38 37.1046 37.1046 38 36 38H25C23.8954 38 23 37.1046 23 36V25Z" fill="url(#paint1_linear_155_847)"/>
<path d="M23 2C23 0.895431 23.8954 0 25 0H40C41.1046 0 42 0.895431 42 2V17C42 18.1046 41.1046 19 40 19H25C23.8954 19 23 18.1046 23 17V2Z" fill="url(#paint2_linear_155_847)"/>
<path d="M4 6C4 4.89543 4.89543 4 6 4H17C18.1046 4 19 4.89543 19 6V17C19 18.1046 18.1046 19 17 19H6C4.89543 19 4 18.1046 4 17V6Z" fill="url(#paint3_linear_155_847)"/>
<path d="M31.1094 7.96262L32.5 5L33.8906 7.96262L37 8.43769L34.75 10.7438L35.2812 14L32.5 12.4626L29.7188 14L30.25 10.7438L28 8.43769L31.1094 7.96262Z" fill="white"/>
<defs>
<linearGradient id="paint0_linear_155_847" x1="7.6884" y1="34.6175" x2="58.1674" y2="14.7107" gradientUnits="userSpaceOnUse">
<stop stop-color="#05CD7D"/>
<stop offset="1" stop-color="#05CD7D" stop-opacity="0"/>
</linearGradient>
<linearGradient id="paint1_linear_155_847" x1="7.6884" y1="34.6175" x2="58.1674" y2="14.7107" gradientUnits="userSpaceOnUse">
<stop stop-color="#05CD7D"/>
<stop offset="1" stop-color="#05CD7D" stop-opacity="0"/>
</linearGradient>
<linearGradient id="paint2_linear_155_847" x1="7.6884" y1="34.6175" x2="58.1674" y2="14.7107" gradientUnits="userSpaceOnUse">
<stop stop-color="#05CD7D"/>
<stop offset="1" stop-color="#05CD7D" stop-opacity="0"/>
</linearGradient>
<linearGradient id="paint3_linear_155_847" x1="7.6884" y1="34.6175" x2="58.1674" y2="14.7107" gradientUnits="userSpaceOnUse">
<stop stop-color="#05CD7D"/>
<stop offset="1" stop-color="#05CD7D" stop-opacity="0"/>
</linearGradient>
</defs>
</svg>
