<svg width="32" height="32" viewBox="0 0 32 32" fill="none" xmlns="http://www.w3.org/2000/svg">
<g clip-path="url(#clip0_142_111)">
<path d="M16 30.6666C24.1002 30.6666 30.6667 24.1001 30.6667 15.9999C30.6667 7.89974 24.1002 1.33325 16 1.33325C7.89983 1.33325 1.33334 7.89974 1.33334 15.9999C1.33334 24.1001 7.89983 30.6666 16 30.6666Z" stroke="white" stroke-width="2"/>
<path d="M14.9333 24.3921C15.8627 24.3921 16.9733 24.0067 18.0613 22.3294L19.2853 20.4027L18.424 19.9041L16.4747 22.4881L16.0667 22.3067L18.6733 11.9481L13.0973 12.9907L12.7347 14.4187H14.548L12.8707 21.1507C12.78 21.4907 12.6667 22.0801 12.6667 22.4427C12.6667 23.3721 13.188 24.3921 14.9333 24.3921ZM17.472 10.4521C18.6053 10.4521 19.4667 9.84008 19.716 8.82008C19.7613 8.63875 19.784 8.38941 19.784 8.23075C19.784 7.34675 19.1267 6.66675 17.948 6.66675C16.8373 6.66675 15.9533 7.27875 15.704 8.29875C15.6587 8.48008 15.636 8.72941 15.636 8.91075C15.636 9.77208 16.2933 10.4521 17.472 10.4521Z" fill="#05CD7D"/>
</g>
<defs>
<clipPath id="clip0_142_111">
<rect width="32" height="32" fill="white"/>
</clipPath>
</defs>
</svg>
