<svg width="24" height="24" viewBox="0 0 24 24" fill="none" xmlns="http://www.w3.org/2000/svg">
<path fill-rule="evenodd" clip-rule="evenodd" d="M3.10437 0H20.8956C21.7144 0.01448 22.4956 0.3462 23.0747 0.92528C23.6537 1.50436 23.9855 2.28559 24 3.1044V20.8956C23.9855 21.7144 23.6537 22.4956 23.0747 23.0747C22.4956 23.6538 21.7144 23.9855 20.8956 24H3.10437C2.28556 23.9855 1.50435 23.6538 0.92527 23.0747C0.34619 22.4956 0.01448 21.7144 0 20.8956V3.1044C0.01448 2.28559 0.34619 1.50436 0.92527 0.92528C1.50435 0.3462 2.28556 0.01448 3.10437 0ZM17.4324 2.6268C17.2902 2.62552 17.1491 2.65258 17.0175 2.7064C16.8859 2.76022 16.7664 2.83973 16.6658 2.94027C16.5653 3.04081 16.4859 3.16038 16.432 3.29199C16.3782 3.4236 16.3511 3.56462 16.3523 3.7068V6.3336C16.3511 6.4758 16.3782 6.6168 16.432 6.7484C16.4859 6.88 16.5653 6.9996 16.6658 7.1001C16.7664 7.2007 16.8859 7.2802 17.0175 7.334C17.1491 7.3878 17.2902 7.4149 17.4324 7.4136H20.1792C20.3214 7.4149 20.4623 7.3878 20.5939 7.334C20.7256 7.2802 20.8453 7.2007 20.9458 7.1001C21.0463 6.9996 21.1258 6.88 21.1796 6.7484C21.2334 6.6168 21.2604 6.4758 21.2591 6.3336V3.702C21.2604 3.55982 21.2334 3.4188 21.1796 3.28719C21.1258 3.15558 21.0463 3.03601 20.9458 2.93547C20.8453 2.83493 20.7256 2.75542 20.5939 2.7016C20.4623 2.64778 20.3214 2.62072 20.1792 2.622H17.4324V2.6268ZM21.1345 10.1496H18.9853C19.2304 10.7982 19.3524 11.4867 19.3452 12.18C19.2852 14.1034 18.479 15.9279 17.0972 17.2672C15.7155 18.6065 13.8668 19.3555 11.9424 19.3555C10.0181 19.3555 8.1693 18.6065 6.7876 17.2672C5.4058 15.9279 4.5996 14.1034 4.5396 12.18C4.5324 11.4867 4.6544 10.7981 4.8996 10.1496H2.75039V20.1792C2.76624 20.4286 2.8725 20.6637 3.04922 20.8404C3.22593 21.0171 3.46096 21.1234 3.71038 21.1392H20.3076C20.557 21.1234 20.7921 21.0171 20.9688 20.8404C21.1455 20.6637 21.2518 20.4286 21.2676 20.1792V10.1496H21.1345ZM11.9399 7.284C11.3196 7.2726 10.7032 7.3843 10.1263 7.6128C9.5495 7.8414 9.0237 8.1821 8.5794 8.6153C8.1352 9.0484 7.7814 9.5655 7.5385 10.1364C7.2955 10.7073 7.1681 11.3207 7.164 11.9412C7.1925 13.188 7.7086 14.3739 8.6015 15.2445C9.4944 16.1152 10.6928 16.6012 11.9399 16.5984C12.5623 16.6157 13.182 16.5081 13.7621 16.2818C14.3422 16.0556 14.8711 15.7154 15.3174 15.2813C15.7638 14.8471 16.1186 14.3279 16.3608 13.7544C16.6031 13.1808 16.7279 12.5644 16.7279 11.9418C16.7279 11.3192 16.6031 10.7028 16.3608 10.1292C16.1186 9.5557 15.7638 9.0365 15.3174 8.6023C14.8711 8.1682 14.3422 7.828 13.7621 7.6018C13.182 7.3755 12.5623 7.2679 11.9399 7.2852V7.284Z" fill="#989D9E"/>
</svg>
