<svg width="26" height="24" viewBox="0 0 26 24" fill="none" xmlns="http://www.w3.org/2000/svg">
<path fill-rule="evenodd" clip-rule="evenodd" d="M3.53053 5.66088C4.07959 5.62096 4.60504 5.42111 5.0424 5.08586C5.4798 4.75061 5.8101 4.29457 5.9926 3.77374C6.1751 3.25291 6.2019 2.68997 6.0698 2.15405C5.9377 1.61813 5.6523 1.13256 5.2489 0.75699C4.84541 0.38141 4.34145 0.13217 3.7987 0.0398796C3.25594 -0.0524004 2.69804 0.0162799 2.19367 0.23749C1.6893 0.4587 1.2604 0.82281 0.959505 1.28511C0.658625 1.74741 0.498906 2.28776 0.500006 2.83981C0.513016 3.225 0.601806 3.6038 0.761406 3.95441C0.920996 4.30502 1.14823 4.6205 1.4299 4.88271C1.71158 5.14491 2.04214 5.34866 2.40266 5.48221C2.76317 5.61576 3.14652 5.67648 3.53053 5.66088ZM6.2361 24V7.9402H0.934826V24H6.2361ZM9.1579 24C9.1579 24 9.26659 9.3507 9.1579 7.9402H14.4615V10.2184C14.939 9.3548 15.6485 8.6427 16.5093 8.1631C17.3701 7.6835 18.3477 7.4556 19.3312 7.5053C22.7944 7.5053 25.5 9.7835 25.5 14.7759V24H20.1965V15.4278C20.1965 13.2575 19.4356 11.7379 17.4909 11.7379C16.8891 11.7226 16.2988 11.9053 15.8103 12.258C15.3217 12.6107 14.9618 13.1141 14.7854 13.6913C14.6517 14.113 14.5785 14.5516 14.568 14.9939V24H9.1579Z" fill="#989D9E"/>
</svg>
