<svg width="42" height="42" viewBox="0 0 42 42" fill="none" xmlns="http://www.w3.org/2000/svg">
<path d="M21 40C31.4934 40 40 31.4934 40 21C40 10.5066 31.4934 2 21 2C10.5066 2 2 10.5066 2 21C2 31.4934 10.5066 40 21 40Z" fill="url(#paint0_linear_161_114)"/>
<path d="M19 12C19 11.4477 18.5523 11 18 11C17.4477 11 17 11.4477 17 12H19ZM18 24H17C17 24.5523 17.4477 25 18 25V24ZM30 25C30.5523 25 31 24.5523 31 24C31 23.4477 30.5523 23 30 23V25ZM17 12V24H19V12H17ZM18 25H30V23H18V25Z" fill="white"/>
<defs>
<linearGradient id="paint0_linear_161_114" x1="5.6884" y1="36.6175" x2="44.4776" y2="21.9658" gradientUnits="userSpaceOnUse">
<stop stop-color="#05CD7D"/>
<stop offset="1" stop-color="#05CD7D" stop-opacity="0"/>
</linearGradient>
</defs>
</svg>
