<svg width="26" height="18" viewBox="0 0 26 18" fill="none" xmlns="http://www.w3.org/2000/svg">
<path d="M13 18C12.9186 18 4.85938 17.9938 2.82693 17.449C2.27822 17.302 1.77796 17.0155 1.37591 16.618C0.97387 16.2205 0.68403 15.7258 0.53523 15.1832C0.00631016 13.2164 0 9.0426 0 9C0 8.9574 0.00594014 4.8056 0.53523 2.8164C0.68756 2.2732 0.97823 1.7776 1.37946 1.3772C1.78068 0.97677 2.27906 0.68487 2.82693 0.52932C4.83821 0.00694978 12.9186 0 13 0C13.0813 0 21.1617 0.00697964 23.1726 0.55102C23.7213 0.69798 24.2215 0.98442 24.6235 1.3819C25.0256 1.7793 25.3154 2.2739 25.4643 2.8164C26.0148 4.8056 26.0003 8.9791 25.9999 9.0213C25.9995 9.0636 25.994 13.2161 25.4643 15.2053C25.3154 15.7478 25.0255 16.2424 24.6235 16.6398C24.2215 17.0373 23.7213 17.3237 23.1726 17.4707C21.1617 17.9942 13.0817 18 13 18ZM10.4085 5.1457V12.8546L17.1759 9L10.4085 5.1457Z" fill="#989D9E"/>
</svg>
