<svg width="32" height="31" viewBox="0 0 32 31" fill="none" xmlns="http://www.w3.org/2000/svg">
<path d="M12.0009 20.4801V19.2001C11.4294 19.2001 10.9271 19.579 10.7701 20.1285L12.0009 20.4801ZM20.0017 20.4801L21.2324 20.1285C21.0753 19.579 20.5732 19.2001 20.0017 19.2001V20.4801ZM11.9643 20.608L10.7336 20.2563L11.9643 20.608ZM2.11832 17.7948L3.34908 18.1465L2.11832 17.7948ZM4.67832 8.83484L5.90908 9.18648L4.67832 8.83484ZM9.60001 5.12009L9.5997 6.40009H9.60001V5.12009ZM22.4 5.12009V6.40009H22.4009L22.4 5.12009ZM27.3242 8.83484L28.5549 8.4832L27.3242 8.83484ZM29.8842 17.7948L28.6534 18.1465L29.8842 17.7948ZM20.0382 20.608L21.269 20.2563L20.0382 20.608ZM12.0009 21.7601H20.0017V19.2001H12.0009V21.7601ZM13.195 20.9596L13.2316 20.8317L10.7701 20.1285L10.7336 20.2563L13.195 20.9596ZM5.28311 25.3552C8.68174 26.3262 12.224 24.3582 13.195 20.9596L10.7336 20.2563C10.151 22.2955 8.02557 23.4763 5.9864 22.8937L5.28311 25.3552ZM0.887573 17.4432C-0.0834619 20.8418 1.88449 24.3841 5.28311 25.3552L5.9864 22.8937C3.94722 22.311 2.76646 20.1857 3.34908 18.1465L0.887573 17.4432ZM3.44757 8.4832L0.887573 17.4432L3.34908 18.1465L5.90908 9.18648L3.44757 8.4832ZM9.60032 3.84009C6.81538 3.83942 4.2514 5.66979 3.44757 8.4832L5.90908 9.18648C6.39056 7.50129 7.92755 6.39969 9.5997 6.40009L9.60032 3.84009ZM22.4 3.84009H9.60001V6.40009H22.4V3.84009ZM22.4009 6.40009C24.0739 6.39886 25.6118 7.50066 26.0934 9.18648L28.5549 8.4832C27.7508 5.66874 25.1853 3.83805 22.3991 3.84009L22.4009 6.40009ZM26.0934 9.18648L28.6534 18.1465L31.1149 17.4432L28.5549 8.4832L26.0934 9.18648ZM28.6534 18.1465C29.2361 20.1857 28.0553 22.311 26.0161 22.8937L26.7194 25.3552C30.118 24.3841 32.086 20.8418 31.1149 17.4432L28.6534 18.1465ZM26.0161 22.8937C23.977 23.4763 21.8515 22.2955 21.269 20.2563L18.8074 20.9596C19.7784 24.3582 23.3208 26.3262 26.7194 25.3552L26.0161 22.8937ZM21.269 20.2563L21.2324 20.1285L18.771 20.8317L18.8074 20.9596L21.269 20.2563Z" fill="white"/>
<path d="M10.88 10.2402V12.8002M10.88 15.3602V12.8002M10.88 12.8002H8.32001H13.44" stroke="#05CD7D" stroke-width="2" stroke-linecap="round" stroke-linejoin="round"/>
<path d="M21.12 15.3602C22.5338 15.3602 23.68 14.2141 23.68 12.8002C23.68 11.3864 22.5338 10.2402 21.12 10.2402C19.7061 10.2402 18.56 11.3864 18.56 12.8002C18.56 14.2141 19.7061 15.3602 21.12 15.3602Z" stroke="#05CD7D" stroke-width="2"/>
</svg>
