<svg width="42" height="42" viewBox="0 0 42 42" fill="none" xmlns="http://www.w3.org/2000/svg">
<path d="M35 23.4687V29.6562C35 29.855 34.9762 30.0532 34.9288 30.2468L32.786 39.0124C32.5013 40.1769 31.4216 41 30.1786 41H16.25C15.8275 41 15.411 40.9038 15.0345 40.7193C14.6581 40.5347 14.3322 40.2671 14.0837 39.9383L5.51248 28.5945C4.64241 27.443 4.90692 25.8306 6.10323 24.9931C7.29969 24.1556 8.97493 24.4103 9.845 25.5618L11.9643 28.3667V9.57813C11.9643 8.15429 13.1635 7 14.6429 7C16.1223 7 17.3215 8.15429 17.3215 9.57813V23.4687H17.8572V20.8906C17.8572 19.4668 19.0564 18.3125 20.5357 18.3125C22.0151 18.3125 23.2143 19.4668 23.2143 20.8906V23.4687H23.75V21.9219C23.75 20.498 24.9492 19.3437 26.4286 19.3437C27.908 19.3437 29.1072 20.498 29.1072 21.9219V23.4687H29.6429C29.6429 22.0449 30.8421 20.8906 32.3215 20.8906C33.8008 20.8906 35 22.0449 35 23.4687Z" fill="url(#paint0_linear_159_282)"/>
<path fill-rule="evenodd" clip-rule="evenodd" d="M9.90363 5.9038C8.63411 7.17332 8 8.8333 8 10.5C8 11.1741 8.17069 11.7915 8.35698 12.2572C8.44827 12.4854 8.53782 12.6634 8.59959 12.7766C8.63025 12.8328 8.65338 12.8718 8.66548 12.8916C8.66934 12.898 8.67205 12.9023 8.67348 12.9046C9.27436 13.8222 9.02397 15.0544 8.10966 15.664C7.19065 16.2768 5.94889 16.0286 5.33611 15.1096L7.00013 14C5.33611 15.1096 5.33544 15.1085 5.33544 15.1085L5.33473 15.1075L5.33326 15.1053L5.33003 15.1004L5.32247 15.0889L5.30313 15.0589C5.28843 15.0359 5.27015 15.0067 5.24883 14.9717C5.20624 14.9017 5.15123 14.8079 5.08813 14.6922C4.96238 14.4617 4.80189 14.1397 4.64315 13.7429C4.32937 12.9586 4 11.826 4 10.5C4 7.81602 5.02527 5.12531 7.07521 3.07537C11.1757 -1.02514 17.8239 -1.02511 21.9244 3.07539C23.9742 5.12513 25 7.81569 25 10.4999C25.0001 11.8258 24.6708 12.9584 24.3571 13.7428C24.1984 14.1396 24.0379 14.4616 23.9122 14.6921C23.8491 14.8077 23.7941 14.9016 23.7515 14.9715C23.7302 15.0066 23.7119 15.0357 23.6972 15.0588L23.6779 15.0887L23.6703 15.1002L23.6671 15.1051L23.6649 15.1084C23.6649 15.1084 23.6642 15.1094 22.0353 14.0234L23.6642 15.1094C23.0515 16.0285 21.8098 16.2768 20.8907 15.6641C19.9764 15.0545 19.7259 13.8224 20.3267 12.9047C20.3281 12.9025 20.3308 12.8981 20.3347 12.8918C20.3468 12.8719 20.3699 12.8329 20.4006 12.7767C20.4623 12.6635 20.5519 12.4855 20.6432 12.2573C20.8294 11.7916 21.0001 11.1742 21 10.5001C21 8.83365 20.3657 7.1735 19.096 5.90381C16.5576 3.3654 12.442 3.3654 9.90363 5.9038Z" fill="url(#paint1_linear_159_282)"/>
<path d="M17 28.7778C17 28.3482 17.4477 28 18 28C18.5523 28 19 28.3482 19 28.7778V34.2222C19 34.6518 18.5523 35 18 35C17.4477 35 17 34.6518 17 34.2222V28.7778Z" fill="white"/>
<path d="M22 28.7778C22 28.3482 22.4477 28 23 28C23.5523 28 24 28.3482 24 28.7778V34.2222C24 34.6518 23.5523 35 23 35C22.4477 35 22 34.6518 22 34.2222V28.7778Z" fill="white"/>
<path d="M27 28.7778C27 28.3482 27.4477 28 28 28C28.5523 28 29 28.3482 29 28.7778V34.2222C29 34.6518 28.5523 35 28 35C27.4477 35 27 34.6518 27 34.2222V28.7778Z" fill="white"/>
<defs>
<linearGradient id="paint0_linear_159_282" x1="33.4998" y1="42" x2="38.7426" y2="-3.49632" gradientUnits="userSpaceOnUse">
<stop stop-color="#05CD7D"/>
<stop offset="1" stop-color="#05CD7D" stop-opacity="0"/>
</linearGradient>
<linearGradient id="paint1_linear_159_282" x1="33.5" y1="42" x2="38.7428" y2="-3.49636" gradientUnits="userSpaceOnUse">
<stop stop-color="#05CD7D"/>
<stop offset="1" stop-color="#05CD7D" stop-opacity="0"/>
</linearGradient>
</defs>
</svg>
