<svg width="42" height="42" viewBox="0 0 42 42" fill="none" xmlns="http://www.w3.org/2000/svg">
<path fill-rule="evenodd" clip-rule="evenodd" d="M6 5C6 4.44772 6.44772 4 7 4H35C35.5523 4 36 4.44772 36 5V19.9402L33.3148 16.6712C32.1146 15.2102 29.8786 15.2102 28.6784 16.6712L19.294 28.0958C17.6858 30.0536 19.0785 33 21.6121 33H22.9966V39.3311L21 38L18 40L15 38L12 40L9 38L6 40V5ZM20.8395 29.3652L30.224 17.9407C30.624 17.4537 31.3694 17.4537 31.7694 17.9407L41.1539 29.3652C41.6899 30.0178 41.2257 31 40.3812 31H36.9967V40C36.9967 40.5523 36.549 41 35.9967 41H25.9967C25.4444 41 24.9967 40.5523 24.9967 40V31H21.6123C20.7677 31 20.3035 30.0178 20.8395 29.3652Z" fill="url(#paint0_linear_159_280)"/>
<path d="M12 11H30" stroke="white" stroke-width="2" stroke-linecap="round"/>
<path d="M12 17H30" stroke="white" stroke-width="2" stroke-linecap="round"/>
<path d="M12 23H24" stroke="white" stroke-width="2" stroke-linecap="round"/>
<path d="M12 29H19" stroke="white" stroke-width="2" stroke-linecap="round"/>
<defs>
<linearGradient id="paint0_linear_159_280" x1="2.5" y1="40" x2="48.495" y2="28.1497" gradientUnits="userSpaceOnUse">
<stop stop-color="#05CD7D"/>
<stop offset="1" stop-color="#05CD7D" stop-opacity="0"/>
</linearGradient>
</defs>
</svg>
