<svg width="24" height="24" viewBox="0 0 24 24" fill="none" xmlns="http://www.w3.org/2000/svg">
<path d="M21.4286 0H2.57143C1.88944 0 1.23539 0.25737 0.75315 0.7155C0.27092 1.17362 0 1.79497 0 2.44286V21.5571C0 22.205 0.27092 22.8264 0.75315 23.2845C1.23539 23.7426 1.88944 24 2.57143 24H9.9241V15.0485H6.5491V11.4H9.9241V8.6192C9.9241 5.4562 11.9063 3.70907 14.9421 3.70907C16.3961 3.70907 17.9164 3.95539 17.9164 3.95539V7.0599H16.2413C14.5907 7.0599 14.0759 8.0329 14.0759 9.0309V11.4H17.7605L17.1712 15.0485H14.0759V24H21.4286C22.1106 24 22.7646 23.7426 23.2468 23.2845C23.7291 22.8264 24 22.205 24 21.5571V2.44286C24 1.79497 23.7291 1.17362 23.2468 0.7155C22.7646 0.25737 22.1106 0 21.4286 0Z" fill="#989D9E"/>
</svg>
