<svg width="42" height="42" viewBox="0 0 42 42" fill="none" xmlns="http://www.w3.org/2000/svg">
<path d="M38 28H4C2.89543 28 2 28.8954 2 30V36C2 37.1046 2.89543 38 4 38H38C39.1046 38 40 37.1046 40 36V30C40 28.8954 39.1046 28 38 28Z" fill="url(#paint0_linear_150_111)"/>
<path d="M38 16H4C2.89543 16 2 16.8954 2 18V24C2 25.1046 2.89543 26 4 26H38C39.1046 26 40 25.1046 40 24V18C40 16.8954 39.1046 16 38 16Z" fill="url(#paint1_linear_150_111)"/>
<path d="M38 4H4C2.89543 4 2 4.89543 2 6V12C2 13.1046 2.89543 14 4 14H38C39.1046 14 40 13.1046 40 12V6C40 4.89543 39.1046 4 38 4Z" fill="url(#paint2_linear_150_111)"/>
<path d="M35 35C36.1046 35 37 34.1046 37 33C37 31.8954 36.1046 31 35 31C33.8954 31 33 31.8954 33 33C33 34.1046 33.8954 35 35 35Z" fill="white"/>
<path d="M35 23C36.1046 23 37 22.1046 37 21C37 19.8954 36.1046 19 35 19C33.8954 19 33 19.8954 33 21C33 22.1046 33.8954 23 35 23Z" fill="white"/>
<path d="M35 11C36.1046 11 37 10.1046 37 9C37 7.89543 36.1046 7 35 7C33.8954 7 33 7.89543 33 9C33 10.1046 33.8954 11 35 11Z" fill="white"/>
<path d="M7 31C7 30.4477 6.55228 30 6 30C5.44772 30 5 30.4477 5 31V35C5 35.5523 5.44772 36 6 36C6.55228 36 7 35.5523 7 35V31Z" fill="white"/>
<path d="M7 19C7 18.4477 6.55228 18 6 18C5.44772 18 5 18.4477 5 19V23C5 23.5523 5.44772 24 6 24C6.55228 24 7 23.5523 7 23V19Z" fill="white"/>
<path d="M7 7C7 6.44772 6.55228 6 6 6C5.44772 6 5 6.44772 5 7V11C5 11.5523 5.44772 12 6 12C6.55228 12 7 11.5523 7 11V7Z" fill="white"/>
<path d="M11 31C11 30.4477 10.5523 30 10 30C9.44772 30 9 30.4477 9 31V35C9 35.5523 9.44772 36 10 36C10.5523 36 11 35.5523 11 35V31Z" fill="white"/>
<path d="M11 19C11 18.4477 10.5523 18 10 18C9.44772 18 9 18.4477 9 19V23C9 23.5523 9.44772 24 10 24C10.5523 24 11 23.5523 11 23V19Z" fill="white"/>
<path d="M11 7C11 6.44772 10.5523 6 10 6C9.44772 6 9 6.44772 9 7V11C9 11.5523 9.44772 12 10 12C10.5523 12 11 11.5523 11 11V7Z" fill="white"/>
<path d="M15 31C15 30.4477 14.5523 30 14 30C13.4477 30 13 30.4477 13 31V35C13 35.5523 13.4477 36 14 36C14.5523 36 15 35.5523 15 35V31Z" fill="white"/>
<path d="M15 19C15 18.4477 14.5523 18 14 18C13.4477 18 13 18.4477 13 19V23C13 23.5523 13.4477 24 14 24C14.5523 24 15 23.5523 15 23V19Z" fill="white"/>
<path d="M15 7C15 6.44772 14.5523 6 14 6C13.4477 6 13 6.44772 13 7V11C13 11.5523 13.4477 12 14 12C14.5523 12 15 11.5523 15 11V7Z" fill="white"/>
<defs>
<linearGradient id="paint0_linear_150_111" x1="-0.235298" y1="38.5556" x2="15.4323" y2="4.73587" gradientUnits="userSpaceOnUse">
<stop stop-color="#05CD7D"/>
<stop offset="1" stop-color="#05CD7D" stop-opacity="0"/>
</linearGradient>
<linearGradient id="paint1_linear_150_111" x1="-0.235298" y1="26.5556" x2="15.4323" y2="-7.26413" gradientUnits="userSpaceOnUse">
<stop stop-color="#05CD7D"/>
<stop offset="1" stop-color="#05CD7D" stop-opacity="0"/>
</linearGradient>
<linearGradient id="paint2_linear_150_111" x1="-0.235297" y1="14.5556" x2="15.4323" y2="-19.2641" gradientUnits="userSpaceOnUse">
<stop stop-color="#05CD7D"/>
<stop offset="1" stop-color="#05CD7D" stop-opacity="0"/>
</linearGradient>
</defs>
</svg>
