<svg width="44" height="42" viewBox="0 0 44 42" fill="none" xmlns="http://www.w3.org/2000/svg">
<path fill-rule="evenodd" clip-rule="evenodd" d="M21 2.02588C10.9714 2.54589 3 10.842 3 21C3 31.4934 11.5066 40 22 40C32.158 40 40.4541 32.0286 40.9741 22H31.5C31.4826 22 31.4653 21.9996 31.4481 21.9987C30.949 26.776 26.9094 30.5 22 30.5C16.7533 30.5 12.5 26.2467 12.5 21C12.5 16.0906 16.224 12.051 21.0013 11.5519C21.0004 11.5347 21 11.5174 21 11.5V2.02588ZM22.9987 11.5519C27.4478 12.0167 30.9833 15.5522 31.4481 20.0013C31.4653 20.0005 31.4826 20 31.5 20H40.9741C40.4713 10.3026 32.6974 2.52872 23 2.02588V11.5C23 11.5174 22.9996 11.5347 22.9987 11.5519Z" fill="url(#paint0_linear_155_848)"/>
<path d="M25 19H19C17.8954 19 17 19.8954 17 21C17 22.1046 17.8954 23 19 23H25C26.1046 23 27 22.1046 27 21C27 19.8954 26.1046 19 25 19Z" fill="white"/>
<defs>
<linearGradient id="paint0_linear_155_848" x1="4.5" y1="38.5" x2="48.2107" y2="21.1204" gradientUnits="userSpaceOnUse">
<stop stop-color="#05CD7D"/>
<stop offset="1" stop-color="#05CD7D" stop-opacity="0"/>
</linearGradient>
</defs>
</svg>
