<svg width="42" height="42" viewBox="0 0 42 42" fill="none" xmlns="http://www.w3.org/2000/svg">
<path fill-rule="evenodd" clip-rule="evenodd" d="M18.8197 1C18.343 1 17.9326 1.33646 17.8391 1.80388L17.1044 5.47755C14.1665 6.21248 11.5505 7.75959 9.50882 9.86646L5.95616 8.66464C5.50461 8.51189 5.00802 8.69909 4.76968 9.1119L2.58949 12.8881C2.35115 13.3009 2.43732 13.8246 2.79538 14.1393L5.60908 16.612C5.2123 18.0064 4.9999 19.4784 4.9999 21C4.9999 22.5215 5.21227 23.9934 5.609 25.3877L2.79499 27.8607C2.43693 28.1754 2.35076 28.6991 2.5891 29.1119L4.76929 32.8881C5.00763 33.3009 5.50422 33.4881 5.95577 33.3354L9.50873 32.1334C11.5505 34.2404 14.1665 35.7875 17.1044 36.5224L17.8391 40.1961C17.9326 40.6635 18.343 41 18.8197 41H23.1801C23.6568 41 24.0672 40.6635 24.1607 40.1961L24.8954 36.5224C27.8333 35.7875 30.4493 34.2404 32.4911 32.1334L36.044 33.3354C36.4956 33.4881 36.9922 33.3009 37.2305 32.8881L39.4107 29.1119C39.649 28.6991 39.5629 28.1754 39.2048 27.8608L36.3908 25.3877C36.7875 23.9934 36.9999 22.5215 36.9999 21C36.9999 19.4784 36.7875 18.0064 36.3907 16.612L39.2044 14.1392C39.5625 13.8246 39.6487 13.3009 39.4103 12.8881L37.2301 9.11189C36.9918 8.69907 36.4952 8.51187 36.0436 8.66462L32.491 9.86645C30.4492 7.75958 27.8332 6.21248 24.8954 5.47755L24.1607 1.80388C24.0672 1.33646 23.6568 1 23.1801 1H18.8197ZM20.9999 28.2C17.0234 28.2 13.7999 24.9764 13.7999 21C13.7999 17.0236 17.0234 13.8 20.9999 13.8C24.9763 13.8 28.1999 17.0236 28.1999 21C28.1999 24.9764 24.9763 28.2 20.9999 28.2Z" fill="url(#paint0_linear_155_846)"/>
<path d="M21 24C22.6569 24 24 22.6569 24 21C24 19.3431 22.6569 18 21 18C19.3431 18 18 19.3431 18 21C18 22.6569 19.3431 24 21 24Z" fill="white"/>
<defs>
<linearGradient id="paint0_linear_155_846" x1="6.05512" y1="37.4395" x2="49.7247" y2="24.4876" gradientUnits="userSpaceOnUse">
<stop stop-color="#05CD7D"/>
<stop offset="1" stop-color="#05CD7D" stop-opacity="0"/>
</linearGradient>
</defs>
</svg>
